<?xml version="1.0" encoding="UTF-8" standalone="no"?>
<!DOCTYPE svg PUBLIC "-//W3C//DTD SVG 1.1//EN" "http://www.w3.org/Graphics/SVG/1.1/DTD/svg11.dtd">
<svg width="100%" height="100%" viewBox="0 0 445 111" version="1.1" xmlns="http://www.w3.org/2000/svg" xmlns:xlink="http://www.w3.org/1999/xlink" xml:space="preserve" xmlns:serif="http://www.serif.com/" style="fill-rule:evenodd;clip-rule:evenodd;stroke-linejoin:round;stroke-miterlimit:2;">
    <g transform="matrix(2.20655,0,0,2.22275,-15.7242,-183.861)">
        <path d="M24.259,132.251C30.459,132.251 33.593,129.651 35.459,125.718L35.459,131.384L44.193,131.384L44.193,96.718L35.259,96.718L35.259,102.184C33.393,98.451 30.259,95.984 24.259,95.984C14.726,95.984 7.126,104.184 7.126,114.184C7.126,124.184 14.726,132.251 24.259,132.251ZM16.126,114.118C16.126,108.718 19.993,104.118 25.726,104.118C31.659,104.118 35.459,108.784 35.459,114.184C35.459,119.584 31.659,124.118 25.726,124.118C19.993,124.118 16.126,119.384 16.126,114.118Z" style="fill:white;fill-rule:nonzero;"/>
        <path d="M49.526,131.384L58.526,131.384L58.526,112.384C58.526,106.384 61.926,103.784 65.726,103.784C70.193,103.784 73.193,106.384 73.193,112.384L73.193,131.384L82.193,131.384L82.193,112.384C82.193,105.718 85.059,103.784 89.259,103.784C93.326,103.784 96.193,106.384 96.193,112.384L96.193,131.384L105.193,131.384L105.193,110.184C105.193,101.451 99.459,95.918 91.993,95.918C85.926,95.918 82.593,98.251 80.259,102.451C77.993,98.251 73.859,95.918 68.993,95.918C63.659,95.918 60.193,97.918 58.393,101.784L58.393,96.718L49.526,96.718L49.526,131.384Z" style="fill:white;fill-rule:nonzero;"/>
        <path d="M130.126,132.251C139.659,132.251 147.259,124.184 147.259,114.184C147.259,104.184 139.659,95.984 130.126,95.984C124.193,95.984 121.059,98.384 119.193,102.051L119.193,82.718L110.193,82.718L110.193,131.384L118.926,131.384L118.926,125.718C120.793,129.651 123.926,132.251 130.126,132.251ZM118.926,114.184C118.926,108.784 122.726,104.118 128.659,104.118C134.393,104.118 138.259,108.718 138.259,114.118C138.259,119.384 134.393,124.118 128.659,124.118C122.726,124.118 118.926,119.584 118.926,114.184Z" style="fill:white;fill-rule:nonzero;"/>
        <path d="M167.526,132.251C174.393,132.251 180.193,129.184 182.993,124.851L175.993,119.584C174.393,122.251 171.393,124.251 167.526,124.251C162.993,124.251 159.926,121.384 158.926,117.318L184.859,117.318C185.059,116.184 185.126,115.118 185.126,114.118C185.126,104.118 177.926,95.851 167.526,95.851C157.126,95.851 149.593,104.118 149.593,114.118C149.593,124.118 156.793,132.251 167.526,132.251ZM158.926,110.584C159.926,106.451 163.126,103.584 167.393,103.584C171.793,103.584 175.059,106.718 176.059,110.584L158.926,110.584Z" style="fill:white;fill-rule:nonzero;"/>
        <path d="M189.059,131.384L198.059,131.384L198.059,113.651C198.059,107.851 202.059,104.384 207.259,104.384L208.526,104.384L208.526,95.918C202.526,95.584 198.993,98.318 197.793,103.318L197.793,96.718L189.059,96.718L189.059,131.384Z" style="fill:white;fill-rule:nonzero;"/>
    </g>
</svg>
