<?xml version="1.0" encoding="UTF-8"?>
<svg width="196px" height="74px" viewBox="0 0 196 74" version="1.1" xmlns="http://www.w3.org/2000/svg" xmlns:xlink="http://www.w3.org/1999/xlink">
    <title>$ amber main.ab I'm</title>
    <g id="Page-1" stroke="none" stroke-width="1" fill="none" fill-rule="evenodd">
        <g id="Studio-Display-Copy-2" transform="translate(-1716, -1655)" fill-rule="nonzero">
            <g id="Group-2-Copy-2" transform="translate(1652, 1465)">
                <g id="Group-5" transform="translate(23, 146)">
                    <g id="$-amber-main.ab-I'm" transform="translate(41.0587, 44.2775)">
                        <path d="M7.63916016,13.5043945 C7.63916016,13.8803711 7.57250977,14.217041 7.43920898,14.5144043 C7.3059082,14.8117676 7.11621094,15.0629883 6.87011719,15.2680664 C6.62402344,15.4799805 6.32324219,15.640625 5.96777344,15.75 C5.61230469,15.859375 5.21240234,15.9140625 4.76806641,15.9140625 C4.41943359,15.9140625 4.07421875,15.8662109 3.73242188,15.7705078 C3.390625,15.6748047 3.08642578,15.5141602 2.81982422,15.2885742 C2.54638672,15.0629883 2.32421875,14.760498 2.15332031,14.3811035 C1.98242188,14.001709 1.89697266,13.5249023 1.89697266,12.9506836 L0,12.9506836 C0,13.7231445 0.112792969,14.3862305 0.338378906,14.9399414 C0.563964844,15.4936523 0.864746094,15.9516602 1.24072266,16.3139648 C1.61669922,16.6831055 2.04907227,16.9633789 2.5378418,17.1547852 C3.02661133,17.3461914 3.53759766,17.4692383 4.07080078,17.5239258 L4.07080078,19.4824219 L5.59863281,19.4824219 L5.59863281,17.5136719 C6.19335938,17.4521484 6.73510742,17.3188477 7.22387695,17.1137695 C7.71264648,16.9086914 8.12792969,16.6352539 8.46972656,16.293457 C8.81152344,15.9584961 9.07641602,15.5551758 9.2644043,15.0834961 C9.45239258,14.6118164 9.54638672,14.0786133 9.54638672,13.4838867 C9.54638672,12.8754883 9.45239258,12.3422852 9.2644043,11.8842773 C9.07641602,11.4262695 8.8046875,11.0229492 8.44921875,10.6743164 C8.09375,10.3256836 7.65966797,10.0214844 7.14697266,9.76171875 C6.63427734,9.50195312 6.05664062,9.26611328 5.4140625,9.05419922 C4.88769531,8.87646484 4.43823242,8.69360352 4.06567383,8.50561523 C3.69311523,8.31762695 3.390625,8.11425781 3.15820312,7.89550781 C2.91894531,7.67675781 2.74462891,7.43408203 2.63525391,7.16748047 C2.52587891,6.90087891 2.47119141,6.59667969 2.47119141,6.25488281 C2.47119141,5.90625 2.52075195,5.59008789 2.61987305,5.30639648 C2.71899414,5.02270508 2.86425781,4.77832031 3.05566406,4.57324219 C3.26074219,4.34765625 3.52563477,4.17333984 3.8503418,4.05029297 C4.17504883,3.92724609 4.55615234,3.86572266 4.99365234,3.86572266 C5.39697266,3.86572266 5.75585937,3.94433594 6.0703125,4.1015625 C6.38476562,4.25878906 6.65136719,4.47412109 6.87011719,4.74755859 C7.08203125,5.02783203 7.24438477,5.36108398 7.35717773,5.74731445 C7.4699707,6.13354492 7.52636719,6.55566406 7.52636719,7.01367188 L9.41308594,7.01367188 C9.40625,6.22753906 9.30029297,5.53198242 9.09521484,4.92700195 C8.89013672,4.32202148 8.59277344,3.81445312 8.203125,3.40429688 C7.90234375,3.09667969 7.546875,2.84545898 7.13671875,2.65063477 C6.7265625,2.45581055 6.27197266,2.32421875 5.77294922,2.25585938 L5.77294922,0 L4.24511719,0 L4.24511719,2.25585938 C3.69140625,2.32421875 3.18725586,2.46435547 2.73266602,2.67626953 C2.27807617,2.88818359 1.89355469,3.16503906 1.57910156,3.50683594 C1.2578125,3.85546875 1.01000977,4.26220703 0.835693359,4.72705078 C0.661376953,5.19189453 0.57421875,5.71142578 0.57421875,6.28564453 C0.57421875,6.89404297 0.673339844,7.43066406 0.871582031,7.89550781 C1.06982422,8.36035156 1.35351562,8.77050781 1.72265625,9.12597656 C2.08496094,9.48828125 2.52246094,9.79931641 3.03515625,10.059082 C3.54785156,10.3188477 4.12207031,10.5478516 4.7578125,10.7460938 C5.26367188,10.9101563 5.70117188,11.0895996 6.0703125,11.2844238 C6.43945312,11.479248 6.74023438,11.6894531 6.97265625,11.9150391 C7.20507812,12.140625 7.37426758,12.3850098 7.48022461,12.6481934 C7.58618164,12.911377 7.63916016,13.1967773 7.63916016,13.5043945 Z" id="Path" fill="#579720"></path>
                        <path d="M33.9301758,17.3496094 L35.9091797,17.3496094 L35.9091797,17.1855469 C35.7861328,16.8779297 35.6904297,16.517334 35.6220703,16.1037598 C35.5537109,15.6901855 35.5195312,15.2988281 35.5195312,14.9296875 L35.5195312,9.77197266 C35.5195312,9.14990234 35.4067383,8.60644531 35.1811523,8.14160156 C34.9555664,7.67675781 34.6479492,7.28710938 34.2583008,6.97265625 C33.8618164,6.66503906 33.3935547,6.43432617 32.8535156,6.28051758 C32.3134766,6.12670898 31.7290039,6.04980469 31.1000977,6.04980469 C30.409668,6.04980469 29.7927246,6.14550781 29.2492676,6.33691406 C28.7058105,6.52832031 28.2460938,6.77783203 27.8701172,7.08544922 C27.4873047,7.39990234 27.1950684,7.75195312 26.9934082,8.14160156 C26.791748,8.53125 26.6875,8.92773438 26.6806641,9.33105469 L28.5878906,9.33105469 C28.5878906,9.09863281 28.6442871,8.87475586 28.7570801,8.65942383 C28.869873,8.4440918 29.0288086,8.2578125 29.2338867,8.10058594 C29.4389648,7.94335938 29.6901855,7.81689453 29.9875488,7.72119141 C30.2849121,7.62548828 30.621582,7.57763672 30.9975586,7.57763672 C31.4008789,7.57763672 31.7648926,7.62890625 32.0895996,7.73144531 C32.4143066,7.83398438 32.6894531,7.97753906 32.9150391,8.16210938 C33.140625,8.35351562 33.3149414,8.58251953 33.4379883,8.84912109 C33.5610352,9.11572266 33.6225586,9.41650391 33.6225586,9.75146484 L33.6225586,10.6230469 L31.5512695,10.6230469 C30.7788086,10.6230469 30.079834,10.6982422 29.4543457,10.8486328 C28.8288574,10.9990234 28.2939453,11.2246094 27.8496094,11.5253906 C27.4052734,11.8330078 27.0617676,12.2158203 26.8190918,12.6738281 C26.576416,13.1318359 26.4550781,13.6650391 26.4550781,14.2734375 C26.4550781,14.7382812 26.5456543,15.1706543 26.7268066,15.5705566 C26.907959,15.970459 27.1660156,16.3139648 27.5009766,16.6010742 C27.8291016,16.8950195 28.2307129,17.1274414 28.7058105,17.2983398 C29.1809082,17.4692383 29.7124023,17.5546875 30.300293,17.5546875 C30.6625977,17.5546875 31.0043945,17.5170898 31.3256836,17.4418945 C31.6469727,17.3666992 31.9511719,17.2641602 32.2382812,17.1342773 C32.5185547,17.0043945 32.7766113,16.8540039 33.0124512,16.6831055 C33.248291,16.512207 33.4619141,16.3310547 33.6533203,16.1396484 C33.6738281,16.3720703 33.7062988,16.5959473 33.7507324,16.8112793 C33.795166,17.0266113 33.8549805,17.2060547 33.9301758,17.3496094 Z M30.5771484,15.9038086 C30.2080078,15.9038086 29.8833008,15.855957 29.6030273,15.7602539 C29.3227539,15.6645508 29.090332,15.53125 28.9057617,15.3603516 C28.7211914,15.1962891 28.5827637,14.9980469 28.4904785,14.765625 C28.3981934,14.5332031 28.3520508,14.2802734 28.3520508,14.0068359 C28.3520508,13.7197266 28.4050293,13.4633789 28.5109863,13.237793 C28.6169434,13.012207 28.7724609,12.8173828 28.9775391,12.6533203 C29.2646484,12.4208984 29.6525879,12.248291 30.1413574,12.135498 C30.630127,12.0227051 31.2026367,11.9663086 31.8588867,11.9663086 L33.6225586,11.9663086 L33.6225586,14.2119141 C33.5131836,14.4306641 33.362793,14.6408691 33.1713867,14.8425293 C32.9799805,15.0441895 32.7543945,15.2236328 32.4946289,15.3808594 C32.2280273,15.5380859 31.934082,15.6645508 31.612793,15.7602539 C31.2915039,15.855957 30.9462891,15.9038086 30.5771484,15.9038086 Z" id="Shape" fill="#C54F2F"></path>
                        <path d="M40.7695312,6.25488281 L39.0673828,6.25488281 L39.0673828,17.3496094 L40.8720703,17.3496094 L40.8720703,8.52099609 C40.9130859,8.41162109 40.9660645,8.30908203 41.0310059,8.21337891 C41.0959473,8.11767578 41.1728516,8.03222656 41.2617188,7.95703125 C41.3779297,7.86132812 41.5197754,7.7878418 41.6872559,7.73657227 C41.8547363,7.68530273 42.0512695,7.65966797 42.2768555,7.65966797 C42.4819336,7.65966797 42.661377,7.68530273 42.8151855,7.73657227 C42.9689941,7.7878418 43.097168,7.86816406 43.199707,7.97753906 C43.309082,8.09375 43.3894043,8.24072266 43.4406738,8.41845703 C43.4919434,8.59619141 43.5175781,8.80126953 43.5175781,9.03369141 L43.5175781,17.3496094 L45.3222656,17.3496094 L45.3222656,9.04394531 C45.3222656,9.00292969 45.3222656,8.96704102 45.3222656,8.9362793 C45.3222656,8.90551758 45.3222656,8.87304688 45.3222656,8.83886719 C45.3427734,8.66796875 45.3837891,8.51245117 45.4453125,8.37231445 C45.5068359,8.23217773 45.5922852,8.10742188 45.7016602,7.99804688 C45.8110352,7.89550781 45.9477539,7.81347656 46.1118164,7.75195312 C46.2758789,7.69042969 46.4707031,7.65966797 46.6962891,7.65966797 C46.9082031,7.65966797 47.0944824,7.68701172 47.255127,7.74169922 C47.4157715,7.79638672 47.5507812,7.87841797 47.6601562,7.98779297 C47.7626953,8.10400391 47.8413086,8.25097656 47.8959961,8.42871094 C47.9506836,8.60644531 47.9780273,8.81152344 47.9780273,9.04394531 L47.9780273,17.3496094 L49.7827148,17.3496094 L49.7827148,9.06445312 C49.7827148,8.53125 49.7211914,8.06811523 49.5981445,7.67504883 C49.4750977,7.28198242 49.2973633,6.96240234 49.0649414,6.71630859 C48.8530273,6.49755859 48.5932617,6.33178711 48.2856445,6.21899414 C47.9780273,6.10620117 47.6328125,6.04980469 47.25,6.04980469 C46.9697266,6.05664062 46.7116699,6.09423828 46.4758301,6.16259766 C46.2399902,6.23095703 46.0263672,6.32324219 45.8349609,6.43945312 C45.6845703,6.54199219 45.5444336,6.66162109 45.4145508,6.79833984 C45.284668,6.93505859 45.171875,7.08203125 45.0761719,7.23925781 C45.0009766,7.06835938 44.9104004,6.91455078 44.8044434,6.77783203 C44.6984863,6.64111328 44.5805664,6.52490234 44.4506836,6.42919922 C44.2729492,6.30615234 44.0661621,6.2121582 43.8303223,6.1472168 C43.5944824,6.08227539 43.3295898,6.04980469 43.0356445,6.04980469 C42.5161133,6.05664062 42.0734863,6.16943359 41.7077637,6.38818359 C41.342041,6.60693359 41.0463867,6.91113281 40.8208008,7.30078125 L40.7695312,6.25488281 Z" id="Path" fill="#C54F2F"></path>
                        <path d="M62.559082,11.925293 L62.559082,11.7099609 C62.559082,11.1289062 62.5112305,10.5769043 62.4155273,10.0539551 C62.3198242,9.53100586 62.1796875,9.05419922 61.9951172,8.62353516 C61.8173828,8.24072266 61.6123047,7.89379883 61.3798828,7.58276367 C61.1474609,7.27172852 60.8842773,7.00683594 60.590332,6.78808594 C60.262207,6.55566406 59.8964844,6.37451172 59.4931641,6.24462891 C59.0898438,6.11474609 58.6489258,6.04980469 58.1704102,6.04980469 C57.7875977,6.04980469 57.4321289,6.08740234 57.1040039,6.16259766 C56.7758789,6.23779297 56.4750977,6.34716797 56.2016602,6.49072266 C55.9829102,6.60693359 55.777832,6.74536133 55.5864258,6.90600586 C55.3950195,7.06665039 55.2207031,7.24609375 55.0634766,7.44433594 L55.0634766,1.59960938 L53.1665039,1.59960938 L53.1665039,17.3496094 L54.909668,17.3496094 L55.0019531,16.0883789 C55.125,16.2456055 55.2548828,16.3891602 55.3916016,16.519043 C55.5283203,16.6489258 55.671875,16.7685547 55.8222656,16.8779297 C56.1367188,17.0966797 56.4904785,17.2641602 56.8835449,17.3803711 C57.2766113,17.496582 57.7124023,17.5546875 58.190918,17.5546875 C58.6079102,17.5546875 58.9958496,17.503418 59.3547363,17.4008789 C59.713623,17.2983398 60.043457,17.1547852 60.3442383,16.9702148 C60.7612305,16.7036133 61.1184082,16.3669434 61.4157715,15.9602051 C61.7131348,15.5534668 61.9541016,15.09375 62.1386719,14.5810547 C62.2753906,14.1914062 62.3796387,13.7727051 62.451416,13.3249512 C62.5231934,12.8771973 62.559082,12.4106445 62.559082,11.925293 Z M60.6621094,11.7099609 L60.6621094,11.925293 C60.6621094,12.253418 60.6416016,12.574707 60.6005859,12.8891602 C60.5595703,13.2036133 60.4946289,13.4975586 60.4057617,13.7709961 C60.2963867,14.1333008 60.1494141,14.4614258 59.9648438,14.7553711 C59.7802734,15.0493164 59.5512695,15.2919922 59.277832,15.4833984 C59.0727539,15.6337891 58.840332,15.748291 58.5805664,15.8269043 C58.3208008,15.9055176 58.0336914,15.9448242 57.7192383,15.9448242 C57.3911133,15.9448242 57.090332,15.9020996 56.8168945,15.8166504 C56.543457,15.7312012 56.2973633,15.6098633 56.0786133,15.4526367 C55.8598633,15.2954102 55.666748,15.1125488 55.4992676,14.9040527 C55.3317871,14.6955566 55.1865234,14.4682617 55.0634766,14.222168 L55.0634766,9.37207031 C55.1796875,9.12597656 55.3215332,8.89868164 55.4890137,8.69018555 C55.6564941,8.48168945 55.8496094,8.29882812 56.0683594,8.14160156 C56.2802734,7.99121094 56.5229492,7.87329102 56.7963867,7.7878418 C57.0698242,7.70239258 57.3706055,7.65966797 57.6987305,7.65966797 C57.9995117,7.65966797 58.2729492,7.69384766 58.519043,7.76220703 C58.7651367,7.83056641 58.9873047,7.92626953 59.1855469,8.04931641 C59.4726562,8.22021484 59.715332,8.45605469 59.9135742,8.75683594 C60.1118164,9.05761719 60.2724609,9.38916016 60.3955078,9.75146484 C60.484375,10.0454102 60.5510254,10.3581543 60.595459,10.6896973 C60.6398926,11.0212402 60.6621094,11.3613281 60.6621094,11.7099609 Z" id="Shape" fill="#C54F2F"></path>
                        <path d="M71.315918,17.5546875 C72.3959961,17.5546875 73.3034668,17.3376465 74.0383301,16.9035645 C74.7731934,16.4694824 75.3251953,15.972168 75.6943359,15.4116211 L74.5356445,14.5092773 C74.1870117,14.9604492 73.7495117,15.3227539 73.2231445,15.5961914 C72.6967773,15.8696289 72.0952148,16.0063477 71.418457,16.0063477 C70.9057617,16.0063477 70.4375,15.9106445 70.0136719,15.7192383 C69.5898438,15.527832 69.2275391,15.2646484 68.9267578,14.9296875 C68.6328125,14.6152344 68.4020996,14.2529297 68.2346191,13.8427734 C68.0671387,13.4326172 67.9594727,12.9575195 67.9116211,12.4174805 L67.9116211,12.3457031 L75.8378906,12.3457031 L75.8378906,11.4946289 C75.8378906,10.722168 75.7404785,10.0043945 75.5456543,9.34130859 C75.3508301,8.67822266 75.0551758,8.10058594 74.6586914,7.60839844 C74.262207,7.12304688 73.7648926,6.74194336 73.166748,6.46508789 C72.5686035,6.18823242 71.8696289,6.04980469 71.0698242,6.04980469 C70.434082,6.04980469 69.8137207,6.1796875 69.2087402,6.43945312 C68.6037598,6.69921875 68.0654297,7.07177734 67.59375,7.55712891 C67.1152344,8.04931641 66.7324219,8.64916992 66.4453125,9.35668945 C66.1582031,10.064209 66.0146484,10.8657227 66.0146484,11.7612305 L66.0146484,12.1918945 C66.0146484,12.9643555 66.1445312,13.6787109 66.4042969,14.3349609 C66.6640625,14.9912109 67.0263672,15.5585938 67.4912109,16.0371094 C67.9560547,16.515625 68.5148926,16.8881836 69.1677246,17.1547852 C69.8205566,17.4213867 70.5366211,17.5546875 71.315918,17.5546875 Z M71.0698242,7.60839844 C71.5551758,7.60839844 71.973877,7.69726562 72.3259277,7.875 C72.6779785,8.05273438 72.9702148,8.28515625 73.2026367,8.57226562 C73.4350586,8.859375 73.6162109,9.19946289 73.7460938,9.5925293 C73.8759766,9.9855957 73.940918,10.3530273 73.940918,10.6948242 L73.940918,10.7871094 L67.9731445,10.7871094 C68.0483398,10.2744141 68.1799316,9.8215332 68.3679199,9.4284668 C68.5559082,9.03540039 68.7866211,8.70214844 69.0600586,8.42871094 C69.3334961,8.16210938 69.6411133,7.95874023 69.9829102,7.81860352 C70.324707,7.6784668 70.6870117,7.60839844 71.0698242,7.60839844 Z" id="Shape" fill="#C54F2F"></path>
                        <path d="M86.9428711,6.04980469 C86.1362305,6.04980469 85.416748,6.22583008 84.7844238,6.57788086 C84.1520996,6.92993164 83.6103516,7.41015625 83.1591797,8.01855469 L83.1489258,7.74169922 L83.0668945,6.25488281 L81.262207,6.25488281 L81.262207,17.3496094 L83.1694336,17.3496094 L83.1694336,10.2333984 C83.2924805,9.89160156 83.447998,9.58227539 83.6359863,9.30541992 C83.8239746,9.02856445 84.0444336,8.79443359 84.2973633,8.60302734 C84.5776367,8.38427734 84.9057617,8.21850586 85.2817383,8.10571289 C85.6577148,7.99291992 86.078125,7.93652344 86.5429688,7.93652344 C86.9052734,7.93652344 87.2521973,7.95532227 87.5837402,7.99291992 C87.9152832,8.03051758 88.265625,8.09033203 88.6347656,8.17236328 L88.8911133,6.31640625 C88.699707,6.234375 88.4143066,6.16943359 88.0349121,6.12158203 C87.6555176,6.07373047 87.2915039,6.04980469 86.9428711,6.04980469 Z" id="Path" fill="#C54F2F"></path>
                        <path d="M107.061035,6.25488281 L105.358887,6.25488281 L105.358887,17.3496094 L107.163574,17.3496094 L107.163574,8.52099609 C107.20459,8.41162109 107.257568,8.30908203 107.32251,8.21337891 C107.387451,8.11767578 107.464355,8.03222656 107.553223,7.95703125 C107.669434,7.86132812 107.811279,7.7878418 107.97876,7.73657227 C108.14624,7.68530273 108.342773,7.65966797 108.568359,7.65966797 C108.773438,7.65966797 108.952881,7.68530273 109.106689,7.73657227 C109.260498,7.7878418 109.388672,7.86816406 109.491211,7.97753906 C109.600586,8.09375 109.680908,8.24072266 109.732178,8.41845703 C109.783447,8.59619141 109.809082,8.80126953 109.809082,9.03369141 L109.809082,17.3496094 L111.61377,17.3496094 L111.61377,9.04394531 C111.61377,9.00292969 111.61377,8.96704102 111.61377,8.9362793 C111.61377,8.90551758 111.61377,8.87304688 111.61377,8.83886719 C111.634277,8.66796875 111.675293,8.51245117 111.736816,8.37231445 C111.79834,8.23217773 111.883789,8.10742188 111.993164,7.99804688 C112.102539,7.89550781 112.239258,7.81347656 112.40332,7.75195312 C112.567383,7.69042969 112.762207,7.65966797 112.987793,7.65966797 C113.199707,7.65966797 113.385986,7.68701172 113.546631,7.74169922 C113.707275,7.79638672 113.842285,7.87841797 113.95166,7.98779297 C114.054199,8.10400391 114.132812,8.25097656 114.1875,8.42871094 C114.242188,8.60644531 114.269531,8.81152344 114.269531,9.04394531 L114.269531,17.3496094 L116.074219,17.3496094 L116.074219,9.06445312 C116.074219,8.53125 116.012695,8.06811523 115.889648,7.67504883 C115.766602,7.28198242 115.588867,6.96240234 115.356445,6.71630859 C115.144531,6.49755859 114.884766,6.33178711 114.577148,6.21899414 C114.269531,6.10620117 113.924316,6.04980469 113.541504,6.04980469 C113.26123,6.05664062 113.003174,6.09423828 112.767334,6.16259766 C112.531494,6.23095703 112.317871,6.32324219 112.126465,6.43945312 C111.976074,6.54199219 111.835938,6.66162109 111.706055,6.79833984 C111.576172,6.93505859 111.463379,7.08203125 111.367676,7.23925781 C111.29248,7.06835938 111.201904,6.91455078 111.095947,6.77783203 C110.98999,6.64111328 110.87207,6.52490234 110.742188,6.42919922 C110.564453,6.30615234 110.357666,6.2121582 110.121826,6.1472168 C109.885986,6.08227539 109.621094,6.04980469 109.327148,6.04980469 C108.807617,6.05664062 108.36499,6.16943359 107.999268,6.38818359 C107.633545,6.60693359 107.337891,6.91113281 107.112305,7.30078125 L107.061035,6.25488281 Z" id="Path" fill="#C78758"></path>
                        <path d="M126.738281,17.3496094 L128.717285,17.3496094 L128.717285,17.1855469 C128.594238,16.8779297 128.498535,16.517334 128.430176,16.1037598 C128.361816,15.6901855 128.327637,15.2988281 128.327637,14.9296875 L128.327637,9.77197266 C128.327637,9.14990234 128.214844,8.60644531 127.989258,8.14160156 C127.763672,7.67675781 127.456055,7.28710938 127.066406,6.97265625 C126.669922,6.66503906 126.20166,6.43432617 125.661621,6.28051758 C125.121582,6.12670898 124.537109,6.04980469 123.908203,6.04980469 C123.217773,6.04980469 122.60083,6.14550781 122.057373,6.33691406 C121.513916,6.52832031 121.054199,6.77783203 120.678223,7.08544922 C120.29541,7.39990234 120.003174,7.75195312 119.801514,8.14160156 C119.599854,8.53125 119.495605,8.92773438 119.48877,9.33105469 L121.395996,9.33105469 C121.395996,9.09863281 121.452393,8.87475586 121.565186,8.65942383 C121.677979,8.4440918 121.836914,8.2578125 122.041992,8.10058594 C122.24707,7.94335938 122.498291,7.81689453 122.795654,7.72119141 C123.093018,7.62548828 123.429688,7.57763672 123.805664,7.57763672 C124.208984,7.57763672 124.572998,7.62890625 124.897705,7.73144531 C125.222412,7.83398438 125.497559,7.97753906 125.723145,8.16210938 C125.94873,8.35351562 126.123047,8.58251953 126.246094,8.84912109 C126.369141,9.11572266 126.430664,9.41650391 126.430664,9.75146484 L126.430664,10.6230469 L124.359375,10.6230469 C123.586914,10.6230469 122.887939,10.6982422 122.262451,10.8486328 C121.636963,10.9990234 121.102051,11.2246094 120.657715,11.5253906 C120.213379,11.8330078 119.869873,12.2158203 119.627197,12.6738281 C119.384521,13.1318359 119.263184,13.6650391 119.263184,14.2734375 C119.263184,14.7382812 119.35376,15.1706543 119.534912,15.5705566 C119.716064,15.970459 119.974121,16.3139648 120.309082,16.6010742 C120.637207,16.8950195 121.038818,17.1274414 121.513916,17.2983398 C121.989014,17.4692383 122.520508,17.5546875 123.108398,17.5546875 C123.470703,17.5546875 123.8125,17.5170898 124.133789,17.4418945 C124.455078,17.3666992 124.759277,17.2641602 125.046387,17.1342773 C125.32666,17.0043945 125.584717,16.8540039 125.820557,16.6831055 C126.056396,16.512207 126.27002,16.3310547 126.461426,16.1396484 C126.481934,16.3720703 126.514404,16.5959473 126.558838,16.8112793 C126.603271,17.0266113 126.663086,17.2060547 126.738281,17.3496094 Z M123.385254,15.9038086 C123.016113,15.9038086 122.691406,15.855957 122.411133,15.7602539 C122.130859,15.6645508 121.898438,15.53125 121.713867,15.3603516 C121.529297,15.1962891 121.390869,14.9980469 121.298584,14.765625 C121.206299,14.5332031 121.160156,14.2802734 121.160156,14.0068359 C121.160156,13.7197266 121.213135,13.4633789 121.319092,13.237793 C121.425049,13.012207 121.580566,12.8173828 121.785645,12.6533203 C122.072754,12.4208984 122.460693,12.248291 122.949463,12.135498 C123.438232,12.0227051 124.010742,11.9663086 124.666992,11.9663086 L126.430664,11.9663086 L126.430664,14.2119141 C126.321289,14.4306641 126.170898,14.6408691 125.979492,14.8425293 C125.788086,15.0441895 125.5625,15.2236328 125.302734,15.3808594 C125.036133,15.5380859 124.742188,15.6645508 124.420898,15.7602539 C124.099609,15.855957 123.754395,15.9038086 123.385254,15.9038086 Z" id="Shape" fill="#C78758"></path>
                        <path d="M133.003418,6.25488281 L133.003418,7.90576172 L136.776855,7.90576172 L136.776855,15.7089844 L133.003418,15.7089844 L133.003418,17.3496094 L142.293457,17.3496094 L142.293457,15.7089844 L138.673828,15.7089844 L138.673828,6.25488281 L133.003418,6.25488281 Z M136.530762,3.34277344 C136.530762,3.65039062 136.624756,3.90673828 136.812744,4.11181641 C137.000732,4.31689453 137.286133,4.41943359 137.668945,4.41943359 C138.044922,4.41943359 138.328613,4.31689453 138.52002,4.11181641 C138.711426,3.90673828 138.807129,3.65039062 138.807129,3.34277344 C138.807129,3.171875 138.779785,3.01464844 138.725098,2.87109375 C138.67041,2.72753906 138.588379,2.60791016 138.479004,2.51220703 C138.390137,2.42333984 138.277344,2.35327148 138.140625,2.30200195 C138.003906,2.25073242 137.84668,2.22509766 137.668945,2.22509766 C137.491211,2.22509766 137.332275,2.25073242 137.192139,2.30200195 C137.052002,2.35327148 136.9375,2.42333984 136.848633,2.51220703 C136.739258,2.61474609 136.658936,2.73779297 136.607666,2.88134766 C136.556396,3.02490234 136.530762,3.17871094 136.530762,3.34277344 Z" id="Shape" fill="#C78758"></path>
                        <path d="M145.964355,17.3496094 L147.861328,17.3496094 L147.861328,9.39257812 C147.991211,9.15332031 148.143311,8.93457031 148.317627,8.73632812 C148.491943,8.53808594 148.681641,8.36376953 148.886719,8.21337891 C149.139648,8.04248047 149.416504,7.9074707 149.717285,7.80834961 C150.018066,7.70922852 150.342773,7.65966797 150.691406,7.65966797 C151.094727,7.65966797 151.451904,7.70751953 151.762939,7.80322266 C152.073975,7.89892578 152.338867,8.05273438 152.557617,8.26464844 C152.769531,8.4765625 152.930176,8.75341797 153.039551,9.09521484 C153.148926,9.43701172 153.203613,9.85400391 153.203613,10.3461914 L153.203613,17.3496094 L155.100586,17.3496094 L155.100586,10.3051758 C155.100586,9.56689453 155.01001,8.92944336 154.828857,8.39282227 C154.647705,7.85620117 154.389648,7.41357422 154.054688,7.06494141 C153.719727,6.71630859 153.314697,6.45996094 152.8396,6.29589844 C152.364502,6.13183594 151.836426,6.04980469 151.255371,6.04980469 C150.824707,6.05664062 150.41626,6.11987305 150.030029,6.23950195 C149.643799,6.35913086 149.286621,6.52832031 148.958496,6.74707031 C148.739746,6.890625 148.532959,7.05981445 148.338135,7.25463867 C148.143311,7.44946289 147.963867,7.66308594 147.799805,7.89550781 L147.666504,6.25488281 L145.964355,6.25488281 L145.964355,17.3496094 Z" id="Path" fill="#C78758"></path>
                        <path d="M162.524414,16.1191406 C162.524414,16.515625 162.64917,16.8522949 162.898682,17.1291504 C163.148193,17.4060059 163.519043,17.5444336 164.01123,17.5444336 C164.496582,17.5444336 164.869141,17.4077148 165.128906,17.1342773 C165.388672,16.8608398 165.518555,16.5224609 165.518555,16.1191406 C165.518555,15.7089844 165.390381,15.3620605 165.134033,15.0783691 C164.877686,14.7946777 164.503418,14.652832 164.01123,14.652832 C163.512207,14.652832 163.139648,14.7963867 162.893555,15.0834961 C162.647461,15.3706055 162.524414,15.7158203 162.524414,16.1191406 Z" id="Path" fill="#C78758"></path>
                        <path d="M179.771484,17.3496094 L181.750488,17.3496094 L181.750488,17.1855469 C181.627441,16.8779297 181.531738,16.517334 181.463379,16.1037598 C181.39502,15.6901855 181.36084,15.2988281 181.36084,14.9296875 L181.36084,9.77197266 C181.36084,9.14990234 181.248047,8.60644531 181.022461,8.14160156 C180.796875,7.67675781 180.489258,7.28710938 180.099609,6.97265625 C179.703125,6.66503906 179.234863,6.43432617 178.694824,6.28051758 C178.154785,6.12670898 177.570312,6.04980469 176.941406,6.04980469 C176.250977,6.04980469 175.634033,6.14550781 175.090576,6.33691406 C174.547119,6.52832031 174.087402,6.77783203 173.711426,7.08544922 C173.328613,7.39990234 173.036377,7.75195312 172.834717,8.14160156 C172.633057,8.53125 172.528809,8.92773438 172.521973,9.33105469 L174.429199,9.33105469 C174.429199,9.09863281 174.485596,8.87475586 174.598389,8.65942383 C174.711182,8.4440918 174.870117,8.2578125 175.075195,8.10058594 C175.280273,7.94335938 175.531494,7.81689453 175.828857,7.72119141 C176.126221,7.62548828 176.462891,7.57763672 176.838867,7.57763672 C177.242188,7.57763672 177.606201,7.62890625 177.930908,7.73144531 C178.255615,7.83398438 178.530762,7.97753906 178.756348,8.16210938 C178.981934,8.35351562 179.15625,8.58251953 179.279297,8.84912109 C179.402344,9.11572266 179.463867,9.41650391 179.463867,9.75146484 L179.463867,10.6230469 L177.392578,10.6230469 C176.620117,10.6230469 175.921143,10.6982422 175.295654,10.8486328 C174.670166,10.9990234 174.135254,11.2246094 173.690918,11.5253906 C173.246582,11.8330078 172.903076,12.2158203 172.6604,12.6738281 C172.417725,13.1318359 172.296387,13.6650391 172.296387,14.2734375 C172.296387,14.7382812 172.386963,15.1706543 172.568115,15.5705566 C172.749268,15.970459 173.007324,16.3139648 173.342285,16.6010742 C173.67041,16.8950195 174.072021,17.1274414 174.547119,17.2983398 C175.022217,17.4692383 175.553711,17.5546875 176.141602,17.5546875 C176.503906,17.5546875 176.845703,17.5170898 177.166992,17.4418945 C177.488281,17.3666992 177.79248,17.2641602 178.07959,17.1342773 C178.359863,17.0043945 178.61792,16.8540039 178.85376,16.6831055 C179.0896,16.512207 179.303223,16.3310547 179.494629,16.1396484 C179.515137,16.3720703 179.547607,16.5959473 179.592041,16.8112793 C179.636475,17.0266113 179.696289,17.2060547 179.771484,17.3496094 Z M176.418457,15.9038086 C176.049316,15.9038086 175.724609,15.855957 175.444336,15.7602539 C175.164062,15.6645508 174.931641,15.53125 174.74707,15.3603516 C174.5625,15.1962891 174.424072,14.9980469 174.331787,14.765625 C174.239502,14.5332031 174.193359,14.2802734 174.193359,14.0068359 C174.193359,13.7197266 174.246338,13.4633789 174.352295,13.237793 C174.458252,13.012207 174.61377,12.8173828 174.818848,12.6533203 C175.105957,12.4208984 175.493896,12.248291 175.982666,12.135498 C176.471436,12.0227051 177.043945,11.9663086 177.700195,11.9663086 L179.463867,11.9663086 L179.463867,14.2119141 C179.354492,14.4306641 179.204102,14.6408691 179.012695,14.8425293 C178.821289,15.0441895 178.595703,15.2236328 178.335938,15.3808594 C178.069336,15.5380859 177.775391,15.6645508 177.454102,15.7602539 C177.132812,15.855957 176.787598,15.9038086 176.418457,15.9038086 Z" id="Shape" fill="#C78758"></path>
                        <path d="M195.14209,11.925293 L195.14209,11.7099609 C195.14209,11.1289062 195.094238,10.5769043 194.998535,10.0539551 C194.902832,9.53100586 194.762695,9.05419922 194.578125,8.62353516 C194.400391,8.24072266 194.195312,7.89379883 193.962891,7.58276367 C193.730469,7.27172852 193.467285,7.00683594 193.17334,6.78808594 C192.845215,6.55566406 192.479492,6.37451172 192.076172,6.24462891 C191.672852,6.11474609 191.231934,6.04980469 190.753418,6.04980469 C190.370605,6.04980469 190.015137,6.08740234 189.687012,6.16259766 C189.358887,6.23779297 189.058105,6.34716797 188.784668,6.49072266 C188.565918,6.60693359 188.36084,6.74536133 188.169434,6.90600586 C187.978027,7.06665039 187.803711,7.24609375 187.646484,7.44433594 L187.646484,1.59960938 L185.749512,1.59960938 L185.749512,17.3496094 L187.492676,17.3496094 L187.584961,16.0883789 C187.708008,16.2456055 187.837891,16.3891602 187.974609,16.519043 C188.111328,16.6489258 188.254883,16.7685547 188.405273,16.8779297 C188.719727,17.0966797 189.073486,17.2641602 189.466553,17.3803711 C189.859619,17.496582 190.29541,17.5546875 190.773926,17.5546875 C191.190918,17.5546875 191.578857,17.503418 191.937744,17.4008789 C192.296631,17.2983398 192.626465,17.1547852 192.927246,16.9702148 C193.344238,16.7036133 193.701416,16.3669434 193.998779,15.9602051 C194.296143,15.5534668 194.537109,15.09375 194.72168,14.5810547 C194.858398,14.1914062 194.962646,13.7727051 195.034424,13.3249512 C195.106201,12.8771973 195.14209,12.4106445 195.14209,11.925293 Z M193.245117,11.7099609 L193.245117,11.925293 C193.245117,12.253418 193.224609,12.574707 193.183594,12.8891602 C193.142578,13.2036133 193.077637,13.4975586 192.98877,13.7709961 C192.879395,14.1333008 192.732422,14.4614258 192.547852,14.7553711 C192.363281,15.0493164 192.134277,15.2919922 191.86084,15.4833984 C191.655762,15.6337891 191.42334,15.748291 191.163574,15.8269043 C190.903809,15.9055176 190.616699,15.9448242 190.302246,15.9448242 C189.974121,15.9448242 189.67334,15.9020996 189.399902,15.8166504 C189.126465,15.7312012 188.880371,15.6098633 188.661621,15.4526367 C188.442871,15.2954102 188.249756,15.1125488 188.082275,14.9040527 C187.914795,14.6955566 187.769531,14.4682617 187.646484,14.222168 L187.646484,9.37207031 C187.762695,9.12597656 187.904541,8.89868164 188.072021,8.69018555 C188.239502,8.48168945 188.432617,8.29882812 188.651367,8.14160156 C188.863281,7.99121094 189.105957,7.87329102 189.379395,7.7878418 C189.652832,7.70239258 189.953613,7.65966797 190.281738,7.65966797 C190.58252,7.65966797 190.855957,7.69384766 191.102051,7.76220703 C191.348145,7.83056641 191.570312,7.92626953 191.768555,8.04931641 C192.055664,8.22021484 192.29834,8.45605469 192.496582,8.75683594 C192.694824,9.05761719 192.855469,9.38916016 192.978516,9.75146484 C193.067383,10.0454102 193.134033,10.3581543 193.178467,10.6896973 C193.2229,11.0212402 193.245117,11.3613281 193.245117,11.7099609 Z" id="Shape" fill="#C78758"></path>
                        <polygon id="Path" fill="#979797" points="0.123046875 58.4199219 0.123046875 60.0708008 3.61962891 60.0708008 3.61962891 71.7089844 0.123046875 71.7089844 0.123046875 73.3496094 9.14648438 73.3496094 9.14648438 71.7089844 5.56787109 71.7089844 5.56787109 60.0708008 9.14648438 60.0708008 9.14648438 58.4199219"></polygon>
                        <polygon id="Path" fill="#979797" points="18.2929688 58.737793 18.2929688 57.5996094 16.6728516 57.5996094 16.6728516 58.9018555 16.6625977 62.5112305 18.0776367 62.5112305"></polygon>
                        <path d="M27.5112305,62.2548828 L25.809082,62.2548828 L25.809082,73.3496094 L27.6137695,73.3496094 L27.6137695,64.5209961 C27.6547852,64.4116211 27.7077637,64.309082 27.7727051,64.2133789 C27.8376465,64.1176758 27.9145508,64.0322266 28.003418,63.9570312 C28.1196289,63.8613281 28.2614746,63.7878418 28.4289551,63.7365723 C28.5964355,63.6853027 28.7929688,63.659668 29.0185547,63.659668 C29.2236328,63.659668 29.4030762,63.6853027 29.5568848,63.7365723 C29.7106934,63.7878418 29.8388672,63.8681641 29.9414062,63.9775391 C30.0507812,64.09375 30.1311035,64.2407227 30.182373,64.418457 C30.2336426,64.5961914 30.2592773,64.8012695 30.2592773,65.0336914 L30.2592773,73.3496094 L32.0639648,73.3496094 L32.0639648,65.0439453 C32.0639648,65.0029297 32.0639648,64.967041 32.0639648,64.9362793 C32.0639648,64.9055176 32.0639648,64.8730469 32.0639648,64.8388672 C32.0844727,64.6679688 32.1254883,64.5124512 32.1870117,64.3723145 C32.2485352,64.2321777 32.3339844,64.1074219 32.4433594,63.9980469 C32.5527344,63.8955078 32.6894531,63.8134766 32.8535156,63.7519531 C33.0175781,63.6904297 33.2124023,63.659668 33.4379883,63.659668 C33.6499023,63.659668 33.8361816,63.6870117 33.9968262,63.7416992 C34.1574707,63.7963867 34.2924805,63.878418 34.4018555,63.987793 C34.5043945,64.1040039 34.5830078,64.2509766 34.6376953,64.4287109 C34.6923828,64.6064453 34.7197266,64.8115234 34.7197266,65.0439453 L34.7197266,73.3496094 L36.5244141,73.3496094 L36.5244141,65.0644531 C36.5244141,64.53125 36.4628906,64.0681152 36.3398438,63.6750488 C36.2167969,63.2819824 36.0390625,62.9624023 35.8066406,62.7163086 C35.5947266,62.4975586 35.3349609,62.3317871 35.0273438,62.2189941 C34.7197266,62.1062012 34.3745117,62.0498047 33.9916992,62.0498047 C33.7114258,62.0566406 33.4533691,62.0942383 33.2175293,62.1625977 C32.9816895,62.230957 32.7680664,62.3232422 32.5766602,62.4394531 C32.4262695,62.5419922 32.2861328,62.6616211 32.15625,62.7983398 C32.0263672,62.9350586 31.9135742,63.0820312 31.8178711,63.2392578 C31.7426758,63.0683594 31.6520996,62.9145508 31.5461426,62.777832 C31.4401855,62.6411133 31.3222656,62.5249023 31.1923828,62.4291992 C31.0146484,62.3061523 30.8078613,62.2121582 30.5720215,62.1472168 C30.3361816,62.0822754 30.0712891,62.0498047 29.7773438,62.0498047 C29.2578125,62.0566406 28.8151855,62.1694336 28.4494629,62.3881836 C28.0837402,62.6069336 27.7880859,62.9111328 27.5625,63.3007812 L27.5112305,62.2548828 Z" id="Path" fill="#979797"></path>
                        <path d="M60.4467773,73.3496094 L62.4257812,73.3496094 L62.4257812,73.1855469 C62.3027344,72.8779297 62.2070312,72.517334 62.1386719,72.1037598 C62.0703125,71.6901855 62.0361328,71.2988281 62.0361328,70.9296875 L62.0361328,65.7719727 C62.0361328,65.1499023 61.9233398,64.6064453 61.6977539,64.1416016 C61.472168,63.6767578 61.1645508,63.2871094 60.7749023,62.9726562 C60.378418,62.6650391 59.9101562,62.4343262 59.3701172,62.2805176 C58.8300781,62.126709 58.2456055,62.0498047 57.6166992,62.0498047 C56.9262695,62.0498047 56.3093262,62.1455078 55.7658691,62.3369141 C55.2224121,62.5283203 54.7626953,62.777832 54.3867188,63.0854492 C54.0039062,63.3999023 53.7116699,63.7519531 53.5100098,64.1416016 C53.3083496,64.53125 53.2041016,64.9277344 53.1972656,65.3310547 L55.1044922,65.3310547 C55.1044922,65.0986328 55.1608887,64.8747559 55.2736816,64.6594238 C55.3864746,64.4440918 55.5454102,64.2578125 55.7504883,64.1005859 C55.9555664,63.9433594 56.2067871,63.8168945 56.5041504,63.7211914 C56.8015137,63.6254883 57.1381836,63.5776367 57.5141602,63.5776367 C57.9174805,63.5776367 58.2814941,63.6289062 58.6062012,63.7314453 C58.9309082,63.8339844 59.2060547,63.9775391 59.4316406,64.1621094 C59.6572266,64.3535156 59.831543,64.5825195 59.9545898,64.8491211 C60.0776367,65.1157227 60.1391602,65.4165039 60.1391602,65.7514648 L60.1391602,66.6230469 L58.0678711,66.6230469 C57.2954102,66.6230469 56.5964355,66.6982422 55.9709473,66.8486328 C55.345459,66.9990234 54.8105469,67.2246094 54.3662109,67.5253906 C53.921875,67.8330078 53.5783691,68.2158203 53.3356934,68.6738281 C53.0930176,69.1318359 52.9716797,69.6650391 52.9716797,70.2734375 C52.9716797,70.7382812 53.0622559,71.1706543 53.2434082,71.5705566 C53.4245605,71.970459 53.6826172,72.3139648 54.0175781,72.6010742 C54.3457031,72.8950195 54.7473145,73.1274414 55.2224121,73.2983398 C55.6975098,73.4692383 56.2290039,73.5546875 56.8168945,73.5546875 C57.1791992,73.5546875 57.5209961,73.5170898 57.8422852,73.4418945 C58.1635742,73.3666992 58.4677734,73.2641602 58.7548828,73.1342773 C59.0351562,73.0043945 59.2932129,72.8540039 59.5290527,72.6831055 C59.7648926,72.512207 59.9785156,72.3310547 60.1699219,72.1396484 C60.1904297,72.3720703 60.2229004,72.5959473 60.267334,72.8112793 C60.3117676,73.0266113 60.371582,73.2060547 60.4467773,73.3496094 Z M57.09375,71.9038086 C56.7246094,71.9038086 56.3999023,71.855957 56.1196289,71.7602539 C55.8393555,71.6645508 55.6069336,71.53125 55.4223633,71.3603516 C55.237793,71.1962891 55.0993652,70.9980469 55.0070801,70.765625 C54.9147949,70.5332031 54.8686523,70.2802734 54.8686523,70.0068359 C54.8686523,69.7197266 54.9216309,69.4633789 55.0275879,69.237793 C55.1335449,69.012207 55.2890625,68.8173828 55.4941406,68.6533203 C55.78125,68.4208984 56.1691895,68.248291 56.657959,68.135498 C57.1467285,68.0227051 57.7192383,67.9663086 58.3754883,67.9663086 L60.1391602,67.9663086 L60.1391602,70.2119141 C60.0297852,70.4306641 59.8793945,70.6408691 59.6879883,70.8425293 C59.496582,71.0441895 59.2709961,71.2236328 59.0112305,71.3808594 C58.7446289,71.5380859 58.4506836,71.6645508 58.1293945,71.7602539 C57.8081055,71.855957 57.4628906,71.9038086 57.09375,71.9038086 Z" id="Shape" fill="#979797"></path>
                        <path d="M66.4145508,73.3496094 L68.3115234,73.3496094 L68.3115234,65.3925781 C68.4414062,65.1533203 68.5935059,64.9345703 68.7678223,64.7363281 C68.9421387,64.5380859 69.1318359,64.3637695 69.3369141,64.2133789 C69.5898438,64.0424805 69.8666992,63.9074707 70.1674805,63.8083496 C70.4682617,63.7092285 70.7929688,63.659668 71.1416016,63.659668 C71.5449219,63.659668 71.9020996,63.7075195 72.2131348,63.8032227 C72.5241699,63.8989258 72.7890625,64.0527344 73.0078125,64.2646484 C73.2197266,64.4765625 73.3803711,64.753418 73.4897461,65.0952148 C73.5991211,65.4370117 73.6538086,65.8540039 73.6538086,66.3461914 L73.6538086,73.3496094 L75.5507812,73.3496094 L75.5507812,66.3051758 C75.5507812,65.5668945 75.4602051,64.9294434 75.2790527,64.3928223 C75.0979004,63.8562012 74.8398438,63.4135742 74.5048828,63.0649414 C74.1699219,62.7163086 73.7648926,62.4599609 73.2897949,62.2958984 C72.8146973,62.1318359 72.2866211,62.0498047 71.7055664,62.0498047 C71.2749023,62.0566406 70.8664551,62.119873 70.4802246,62.239502 C70.0939941,62.3591309 69.7368164,62.5283203 69.4086914,62.7470703 C69.1899414,62.890625 68.9831543,63.0598145 68.7883301,63.2546387 C68.5935059,63.4494629 68.4140625,63.6630859 68.25,63.8955078 L68.1166992,62.2548828 L66.4145508,62.2548828 L66.4145508,73.3496094 Z" id="Path" fill="#979797"></path>
                        <path d="M100.22168,73.3496094 L102.200684,73.3496094 L102.200684,73.1855469 C102.077637,72.8779297 101.981934,72.517334 101.913574,72.1037598 C101.845215,71.6901855 101.811035,71.2988281 101.811035,70.9296875 L101.811035,65.7719727 C101.811035,65.1499023 101.698242,64.6064453 101.472656,64.1416016 C101.24707,63.6767578 100.939453,63.2871094 100.549805,62.9726562 C100.15332,62.6650391 99.6850586,62.4343262 99.1450195,62.2805176 C98.6049805,62.126709 98.0205078,62.0498047 97.3916016,62.0498047 C96.7011719,62.0498047 96.0842285,62.1455078 95.5407715,62.3369141 C94.9973145,62.5283203 94.5375977,62.777832 94.1616211,63.0854492 C93.7788086,63.3999023 93.4865723,63.7519531 93.2849121,64.1416016 C93.083252,64.53125 92.9790039,64.9277344 92.972168,65.3310547 L94.8793945,65.3310547 C94.8793945,65.0986328 94.935791,64.8747559 95.048584,64.6594238 C95.161377,64.4440918 95.3203125,64.2578125 95.5253906,64.1005859 C95.7304688,63.9433594 95.9816895,63.8168945 96.2790527,63.7211914 C96.576416,63.6254883 96.9130859,63.5776367 97.2890625,63.5776367 C97.6923828,63.5776367 98.0563965,63.6289062 98.3811035,63.7314453 C98.7058105,63.8339844 98.980957,63.9775391 99.206543,64.1621094 C99.4321289,64.3535156 99.6064453,64.5825195 99.7294922,64.8491211 C99.8525391,65.1157227 99.9140625,65.4165039 99.9140625,65.7514648 L99.9140625,66.6230469 L97.8427734,66.6230469 C97.0703125,66.6230469 96.3713379,66.6982422 95.7458496,66.8486328 C95.1203613,66.9990234 94.5854492,67.2246094 94.1411133,67.5253906 C93.6967773,67.8330078 93.3532715,68.2158203 93.1105957,68.6738281 C92.8679199,69.1318359 92.746582,69.6650391 92.746582,70.2734375 C92.746582,70.7382812 92.8371582,71.1706543 93.0183105,71.5705566 C93.1994629,71.970459 93.4575195,72.3139648 93.7924805,72.6010742 C94.1206055,72.8950195 94.5222168,73.1274414 94.9973145,73.2983398 C95.4724121,73.4692383 96.0039062,73.5546875 96.5917969,73.5546875 C96.9541016,73.5546875 97.2958984,73.5170898 97.6171875,73.4418945 C97.9384766,73.3666992 98.2426758,73.2641602 98.5297852,73.1342773 C98.8100586,73.0043945 99.0681152,72.8540039 99.3039551,72.6831055 C99.5397949,72.512207 99.753418,72.3310547 99.9448242,72.1396484 C99.965332,72.3720703 99.9978027,72.5959473 100.042236,72.8112793 C100.08667,73.0266113 100.146484,73.2060547 100.22168,73.3496094 Z M96.8686523,71.9038086 C96.4995117,71.9038086 96.1748047,71.855957 95.8945312,71.7602539 C95.6142578,71.6645508 95.3818359,71.53125 95.1972656,71.3603516 C95.0126953,71.1962891 94.8742676,70.9980469 94.7819824,70.765625 C94.6896973,70.5332031 94.6435547,70.2802734 94.6435547,70.0068359 C94.6435547,69.7197266 94.6965332,69.4633789 94.8024902,69.237793 C94.9084473,69.012207 95.0639648,68.8173828 95.269043,68.6533203 C95.5561523,68.4208984 95.9440918,68.248291 96.4328613,68.135498 C96.9216309,68.0227051 97.4941406,67.9663086 98.1503906,67.9663086 L99.9140625,67.9663086 L99.9140625,70.2119141 C99.8046875,70.4306641 99.6542969,70.6408691 99.4628906,70.8425293 C99.2714844,71.0441895 99.0458984,71.2236328 98.7861328,71.3808594 C98.5195312,71.5380859 98.2255859,71.6645508 97.9042969,71.7602539 C97.5830078,71.855957 97.237793,71.9038086 96.8686523,71.9038086 Z" id="Shape" fill="#979797"></path>
                        <path d="M105.830566,67.7099609 L105.830566,67.925293 C105.830566,68.7182617 105.936523,69.458252 106.148438,70.1452637 C106.360352,70.8322754 106.657715,71.4287109 107.040527,71.9345703 C107.42334,72.4404297 107.886475,72.8369141 108.429932,73.1240234 C108.973389,73.4111328 109.580078,73.5546875 110.25,73.5546875 C110.933594,73.5546875 111.531738,73.4384766 112.044434,73.2060547 C112.557129,72.9736328 112.998047,72.6318359 113.367188,72.1806641 L113.449219,73.3496094 L115.192383,73.3496094 L115.192383,57.5996094 L113.29541,57.5996094 L113.29541,63.3520508 C112.933105,62.9282227 112.50415,62.6052246 112.008545,62.3830566 C111.512939,62.1608887 110.933594,62.0498047 110.270508,62.0498047 C109.59375,62.0498047 108.981934,62.1899414 108.435059,62.4702148 C107.888184,62.7504883 107.42334,63.1401367 107.040527,63.6391602 C106.650879,64.1381836 106.351807,64.7346191 106.143311,65.4284668 C105.934814,66.1223145 105.830566,66.8828125 105.830566,67.7099609 Z M107.727539,67.925293 L107.727539,67.7099609 C107.727539,67.1699219 107.785645,66.6555176 107.901855,66.166748 C108.018066,65.6779785 108.199219,65.2456055 108.445312,64.8696289 C108.68457,64.5004883 108.993896,64.206543 109.373291,63.987793 C109.752686,63.769043 110.208984,63.659668 110.742188,63.659668 C111.364258,63.659668 111.883789,63.8049316 112.300781,64.095459 C112.717773,64.3859863 113.049316,64.7568359 113.29541,65.2080078 L113.29541,70.3554688 C113.049316,70.8408203 112.717773,71.2270508 112.300781,71.5141602 C111.883789,71.8012695 111.357422,71.9448242 110.72168,71.9448242 C110.195312,71.9448242 109.744141,71.8371582 109.368164,71.6218262 C108.992188,71.4064941 108.68457,71.1142578 108.445312,70.7451172 C108.199219,70.3759766 108.018066,69.9487305 107.901855,69.4633789 C107.785645,68.9780273 107.727539,68.465332 107.727539,67.925293 Z" id="Shape" fill="#979797"></path>
                        <path d="M126.758789,73.3496094 L128.481445,73.3496094 L128.481445,62.2548828 L126.574219,62.2548828 L126.574219,70.2119141 C126.47168,70.4511719 126.343506,70.6716309 126.189697,70.873291 C126.035889,71.0749512 125.856445,71.2475586 125.651367,71.3911133 C125.405273,71.5688477 125.114746,71.7072754 124.779785,71.8063965 C124.444824,71.9055176 124.06543,71.9550781 123.641602,71.9550781 C123.279297,71.9550781 122.959717,71.9072266 122.682861,71.8115234 C122.406006,71.7158203 122.171875,71.5483398 121.980469,71.309082 C121.789062,71.0766602 121.645508,70.762207 121.549805,70.3657227 C121.454102,69.9692383 121.40625,69.4702148 121.40625,68.8686523 L121.40625,62.2548828 L119.509277,62.2548828 L119.509277,68.8481445 C119.509277,69.675293 119.599854,70.3845215 119.781006,70.9758301 C119.962158,71.5671387 120.220215,72.0541992 120.555176,72.4370117 C120.890137,72.8198242 121.293457,73.1018066 121.765137,73.282959 C122.236816,73.4641113 122.763184,73.5546875 123.344238,73.5546875 C124.068848,73.5546875 124.708008,73.4025879 125.261719,73.0983887 C125.81543,72.7941895 126.276855,72.3686523 126.645996,71.8217773 L126.758789,73.3496094 Z" id="Path" fill="#979797"></path>
                        <polygon id="Path" fill="#979797" points="133.003418 57.5996094 133.003418 59.2504883 136.776855 59.2504883 136.776855 71.7089844 133.003418 71.7089844 133.003418 73.3496094 142.293457 73.3496094 142.293457 71.7089844 138.673828 71.7089844 138.673828 57.5996094"></polygon>
                        <path d="M150.455566,59.5683594 L148.54834,59.5683594 L148.54834,62.2548828 L145.63623,62.2548828 L145.63623,63.7211914 L148.54834,63.7211914 L148.54834,69.7504883 C148.54834,70.434082 148.638916,71.0168457 148.820068,71.4987793 C149.001221,71.9807129 149.249023,72.3720703 149.563477,72.6728516 C149.87793,72.9804688 150.248779,73.2043457 150.676025,73.3444824 C151.103271,73.4846191 151.562988,73.5546875 152.055176,73.5546875 C152.349121,73.5546875 152.644775,73.5410156 152.942139,73.5136719 C153.239502,73.4863281 153.521484,73.4453125 153.788086,73.390625 C154.054688,73.3427734 154.300781,73.282959 154.526367,73.2111816 C154.751953,73.1394043 154.943359,73.0556641 155.100586,72.9599609 L154.833984,71.6166992 C154.717773,71.644043 154.569092,71.6765137 154.387939,71.7141113 C154.206787,71.751709 154.013672,71.7875977 153.808594,71.8217773 C153.59668,71.855957 153.381348,71.8850098 153.162598,71.9089355 C152.943848,71.9328613 152.731934,71.9448242 152.526855,71.9448242 C152.246582,71.9448242 151.981689,71.9106445 151.732178,71.8422852 C151.482666,71.7739258 151.262207,71.6542969 151.070801,71.4833984 C150.879395,71.3193359 150.729004,71.097168 150.619629,70.8168945 C150.510254,70.5366211 150.455566,70.1811523 150.455566,69.7504883 L150.455566,63.7211914 L154.680176,63.7211914 L154.680176,62.2548828 L150.455566,62.2548828 L150.455566,59.5683594 Z" id="Path" fill="#979797"></path>
                    </g>
                </g>
            </g>
        </g>
    </g>
</svg>