<?xml version="1.0" encoding="UTF-8" standalone="no"?><!DOCTYPE svg PUBLIC "-//W3C//DTD SVG 1.1//EN" "http://www.w3.org/Graphics/SVG/1.1/DTD/svg11.dtd"><svg width="100%" height="100%" viewBox="0 0 1024 1025" version="1.1" xmlns="http://www.w3.org/2000/svg" xmlns:xlink="http://www.w3.org/1999/xlink" xml:space="preserve" xmlns:serif="http://www.serif.com/" style="fill-rule:evenodd;clip-rule:evenodd;stroke-linejoin:round;stroke-miterlimit:2;"><rect id="Interoperability" x="0" y="0.906" width="1024" height="1024" style="fill:none;"/><path d="M649.148,425.597c2.91,-2.911 6.952,-4.395 11.054,-4.06c4.103,0.336 7.85,2.457 10.249,5.801c17.099,23.837 52.377,73.016 67.324,93.854c4.001,5.576 3.375,13.23 -1.478,18.083c-39.836,39.836 -209.516,209.515 -256.768,256.768c-2.993,2.992 -4.473,7.177 -4.028,11.386c0.445,4.209 2.769,7.992 6.321,10.293c27.511,17.813 88.017,56.991 128.474,83.188c5.215,3.376 7.585,9.781 5.825,15.739c-1.76,5.957 -7.232,10.045 -13.444,10.045c-91.109,0 -286.328,0 -340.195,0c-3.718,0 -7.284,-1.477 -9.912,-4.105c-2.629,-2.629 -4.106,-6.195 -4.106,-9.913l-0,-340.195c-0,-6.212 4.088,-11.683 10.045,-13.444c5.958,-1.76 12.363,0.61 15.74,5.825c26.196,40.457 65.374,100.963 83.188,128.474c2.3,3.553 6.083,5.876 10.292,6.321c4.209,0.445 8.394,-1.035 11.387,-4.028c48.025,-48.025 223.046,-223.046 270.032,-270.032Zm-274.296,174.618c-2.91,2.911 -6.952,4.395 -11.054,4.059c-4.103,-0.335 -7.85,-2.456 -10.249,-5.8c-17.099,-23.838 -52.377,-73.016 -67.324,-93.854c-4.001,-5.577 -3.375,-13.23 1.478,-18.083c39.836,-39.836 209.516,-209.516 256.768,-256.768c2.993,-2.993 4.473,-7.178 4.028,-11.387c-0.445,-4.209 -2.769,-7.991 -6.321,-10.292c-27.511,-17.813 -88.017,-56.991 -128.474,-83.188c-5.215,-3.376 -7.585,-9.782 -5.825,-15.739c1.76,-5.957 7.232,-10.046 13.444,-10.046c91.109,0 286.328,0 340.195,0c3.718,0 7.284,1.477 9.912,4.106c2.629,2.629 4.106,6.195 4.106,9.912l0,340.196c0,6.212 -4.088,11.683 -10.045,13.443c-5.958,1.761 -12.363,-0.61 -15.74,-5.824c-26.196,-40.458 -65.374,-100.963 -83.188,-128.474c-2.3,-3.553 -6.083,-5.876 -10.292,-6.321c-4.209,-0.445 -8.394,1.035 -11.387,4.028c-48.025,48.025 -223.046,223.046 -270.032,270.032Z" style="fill:#e3530a;"/></svg>