<?xml version="1.0" encoding="UTF-8" standalone="no"?>
<!DOCTYPE svg PUBLIC "-//W3C//DTD SVG 1.1//EN" "http://www.w3.org/Graphics/SVG/1.1/DTD/svg11.dtd">
<svg width="100%" height="100%" viewBox="0 0 1024 1025" version="1.1" xmlns="http://www.w3.org/2000/svg" xmlns:xlink="http://www.w3.org/1999/xlink" xml:space="preserve" xmlns:serif="http://www.serif.com/" style="fill-rule:evenodd;clip-rule:evenodd;stroke-linejoin:round;stroke-miterlimit:2;">
    <g transform="matrix(1,0,0,1,0,-1167)">
        <g id="Interoperability" transform="matrix(1,0,0,1.33333,1.13687e-13,1167.91)">
            <rect x="0" y="0" width="1024" height="768" style="fill:none;"/>
            <g transform="matrix(-0.861088,0.645816,-0.901483,-0.676112,2603.3,1263.25)">
                <path d="M441.575,1774.73C438.21,1774.73 435.013,1773.33 432.826,1770.88C430.639,1768.44 429.681,1765.2 430.203,1762.03C433.832,1739.98 441.213,1695.14 444.406,1675.74C445.286,1670.4 450.11,1666.46 455.777,1666.46C499.85,1666.46 679.155,1666.46 730.998,1666.46C734.455,1666.46 737.729,1664.97 739.915,1662.41C742.101,1659.86 742.968,1656.49 742.276,1653.26C737.119,1629.16 726.005,1577.21 718.352,1541.44C717.325,1536.64 719.748,1531.77 724.294,1529.5C728.84,1527.23 734.411,1528.1 737.955,1531.64C787.866,1581.56 890.608,1684.3 919.309,1713C923.559,1717.25 923.559,1723.94 919.309,1728.19C890.608,1756.89 787.866,1859.63 737.955,1909.54C734.411,1913.09 728.84,1913.96 724.294,1911.69C719.748,1909.42 717.325,1904.55 718.352,1899.75C726.005,1863.98 737.119,1812.03 742.276,1787.93C742.968,1784.69 742.101,1781.33 739.915,1778.78C737.729,1776.22 734.455,1774.73 730.998,1774.73C678.284,1774.73 493.203,1774.73 441.575,1774.73ZM626.56,1848.74C629.926,1848.74 633.122,1850.14 635.309,1852.59C637.496,1855.03 638.455,1858.27 637.932,1861.44C634.303,1883.49 626.923,1928.33 623.73,1947.73C622.85,1953.07 618.025,1957.01 612.358,1957.01L337.138,1957.01C333.68,1957.01 330.406,1958.5 328.22,1961.06C326.034,1963.61 325.167,1966.98 325.859,1970.21C331.016,1994.31 342.131,2046.26 349.783,2082.03C350.81,2086.83 348.387,2091.7 343.842,2093.97C339.296,2096.24 333.725,2095.37 330.181,2091.82C280.27,2041.91 177.527,1939.17 148.827,1910.47C144.577,1906.22 144.577,1899.53 148.827,1895.28C177.527,1866.58 280.27,1763.84 330.181,1713.93C333.725,1710.38 339.296,1709.51 343.842,1711.78C348.387,1714.05 350.81,1718.92 349.783,1723.72C342.131,1759.49 331.016,1811.44 325.859,1835.54C325.167,1838.78 326.034,1842.14 328.22,1844.69C330.406,1847.25 333.681,1848.74 337.138,1848.74C389.851,1848.74 574.932,1848.74 626.56,1848.74Z" style="fill:rgb(227,83,10);"/>
            </g>
        </g>
    </g>
</svg>
