<?xml version="1.0" encoding="UTF-8" standalone="no"?>
<!DOCTYPE svg PUBLIC "-//W3C//DTD SVG 1.1//EN" "http://www.w3.org/Graphics/SVG/1.1/DTD/svg11.dtd">
<svg width="100%" height="100%" viewBox="0 0 1001 1000" version="1.1" xmlns="http://www.w3.org/2000/svg" xmlns:xlink="http://www.w3.org/1999/xlink" xml:space="preserve" xmlns:serif="http://www.serif.com/" style="fill-rule:evenodd;clip-rule:evenodd;stroke-linejoin:round;stroke-miterlimit:2;">
    <g transform="matrix(1,0,0,1,-2216,0)">
        <g id="Artboard1" transform="matrix(1,0,0,1,2216.75,0)">
            <rect x="0" y="0" width="1000" height="1000" style="fill:none;"/>
            <g transform="matrix(1,0,0,1,-2216.75,0)">
                <path d="M2690.21,880.523C2567.7,865.295 2472.19,745.857 2472.19,600.973C2472.19,565.392 2477.95,531.345 2488.45,500L2690.21,500L2690.21,880.523Z" style="fill:rgb(227,83,10);"/>
            </g>
            <g transform="matrix(1,0,0,1,-2216.75,0)">
                <path d="M2945.05,500C2955.55,531.345 2961.31,565.392 2961.31,600.973C2961.31,745.857 2865.8,865.295 2743.29,880.523L2743.29,500L2945.05,500Z" style="fill:rgb(227,83,10);"/>
            </g>
            <g transform="matrix(0.744307,0,0,0.809877,-1525.64,133.865)">
                <path d="M2508.09,401.026C2508.09,283.24 2603.72,187.613 2721.51,187.613C2839.29,187.613 2934.92,283.24 2934.92,401.026L2508.09,401.026Z" style="fill:rgb(227,83,10);"/>
            </g>
            <g transform="matrix(1,0,0,1,-2216.75,0)">
                <path d="M2518.44,250.7C2519.28,256.28 2515.43,261.492 2509.85,262.332C2504.27,263.172 2499.06,259.324 2498.22,253.744C2492.62,222.245 2507.16,194.18 2529.98,173.73C2552.39,153.643 2583.05,141.538 2609.78,140.67C2643.96,139.559 2666.72,157.795 2682,185.854C2707.62,232.885 2709.11,312.079 2711.05,361.069C2711.19,372.566 2701.98,382.022 2690.48,382.171C2678.99,382.32 2669.53,373.107 2669.38,361.61C2669.9,323.299 2672.58,264.956 2660.28,220.941C2652.37,192.655 2638.73,170.016 2609.95,169.431C2588.89,169.002 2564.38,177.605 2545.91,192.479C2528.07,206.85 2515.5,226.955 2518.44,250.7Z" style="fill:rgb(227,83,10);"/>
            </g>
            <g transform="matrix(-1,0,0,1,3216.75,0)">
                <path d="M2498.26,253.737C2499.1,259.291 2504.29,263.12 2509.84,262.284C2515.39,261.448 2519.22,256.26 2518.39,250.707C2515.45,226.946 2528.03,206.828 2545.89,192.449C2564.36,177.573 2588.88,168.97 2609.95,169.401C2638.75,169.991 2652.39,192.637 2660.3,220.936C2672.6,264.954 2669.9,323.298 2669.38,361.61C2669.53,373.107 2678.99,382.32 2690.48,382.171C2701.98,382.022 2711.19,372.566 2711.05,361.069C2709.11,312.08 2707.61,232.89 2681.98,185.864C2666.7,157.814 2643.95,139.584 2609.78,140.699C2583.06,141.57 2552.4,153.675 2530,173.76C2507.2,194.203 2492.66,222.254 2498.26,253.737Z" style="fill:rgb(227,83,10);"/>
            </g>
        </g>
    </g>
</svg>
