<?xml version="1.0" encoding="UTF-8" standalone="no"?><!DOCTYPE svg PUBLIC "-//W3C//DTD SVG 1.1//EN" "http://www.w3.org/Graphics/SVG/1.1/DTD/svg11.dtd"><svg width="100%" height="100%" viewBox="0 0 1025 1025" version="1.1" xmlns="http://www.w3.org/2000/svg" xmlns:xlink="http://www.w3.org/1999/xlink" xml:space="preserve" xmlns:serif="http://www.serif.com/" style="fill-rule:evenodd;clip-rule:evenodd;stroke-linejoin:round;stroke-miterlimit:2;"><rect id="Standard-Library" serif:id="Standard Library" x="0.019" y="0.906" width="1024" height="1024" style="fill:none;"/><g><path d="M371.207,613.256l-0,-406.962c-0,-19.663 15.964,-35.627 35.627,-35.627l285.019,-0c19.663,-0 35.627,15.964 35.627,35.627l0,406.962l-356.273,0Zm356.273,69.84l0,136.422c0,19.663 -15.964,35.627 -35.627,35.627l-285.019,0c-19.663,0 -35.627,-15.964 -35.627,-35.627l-0,-136.422l356.273,-0Zm-229.307,-292.305l-0,57.306c-0,2.231 0.742,4.398 2.111,6.16l43.43,55.917c1.338,1.723 3.396,2.731 5.577,2.732c2.181,0.001 4.24,-1.005 5.58,-2.726l43.526,-55.921c1.372,-1.763 2.117,-3.934 2.117,-6.168l0,-57.294c0,-2.391 -0.853,-4.703 -2.405,-6.521l-43.441,-50.876c-1.343,-1.574 -3.309,-2.479 -5.377,-2.478c-2.069,0.001 -4.034,0.909 -5.375,2.483l-43.345,50.873c-1.548,1.817 -2.398,4.126 -2.398,6.513Z" style="fill:#e3530a;"/></g><g><path d="M81.745,332.933l0,-47.571c0,-13.198 10.716,-23.913 23.914,-23.913l191.307,-0c13.198,-0 23.913,10.715 23.913,23.913l0,47.571l-239.134,-0Zm239.134,69.839l0,428.46c0,13.198 -10.715,23.913 -23.913,23.913l-191.307,0c-13.198,0 -23.914,-10.715 -23.914,-23.913l0,-428.46l239.134,-0Z" style="fill:#e3530a;"/></g><g><path d="M777.808,477.986l-0,-58.766c-0,-9.078 7.37,-16.448 16.448,-16.448l131.587,-0c9.078,-0 16.449,7.37 16.449,16.448l-0,58.766l-164.484,0Zm164.484,69.84l-0,171.225l-164.484,0l-0,-171.225l164.484,-0Zm-0,241.065l-0,49.806c-0,9.078 -7.371,16.448 -16.449,16.448l-131.587,0c-9.078,0 -16.448,-7.37 -16.448,-16.448l-0,-49.806l164.484,-0Z" style="fill:#e3530a;"/></g></svg>