<?xml version="1.0" encoding="UTF-8" standalone="no"?>
<!DOCTYPE svg PUBLIC "-//W3C//DTD SVG 1.1//EN" "http://www.w3.org/Graphics/SVG/1.1/DTD/svg11.dtd">
<svg width="100%" height="100%" viewBox="0 0 1000 1000" version="1.1" xmlns="http://www.w3.org/2000/svg" xmlns:xlink="http://www.w3.org/1999/xlink" xml:space="preserve" xmlns:serif="http://www.serif.com/" style="fill-rule:evenodd;clip-rule:evenodd;stroke-linejoin:round;stroke-miterlimit:2;">
    <rect id="Artboard1" x="0" y="0" width="1000" height="1000" style="fill:none;"/>
    <g id="Artboard11" serif:id="Artboard1">
        <g transform="matrix(0.752068,0,0,0.752068,22.3205,76.409)">
            <path d="M288.736,55.159C436.897,55.159 557.185,175.447 557.185,323.608C557.185,471.769 436.897,592.057 288.736,592.057C140.574,592.057 20.286,471.769 20.286,323.608C20.286,175.447 140.574,55.159 288.736,55.159ZM288.736,138.263C186.441,138.263 103.39,221.313 103.39,323.608C103.39,425.903 186.441,508.953 288.736,508.953C391.03,508.953 474.081,425.903 474.081,323.608C474.081,221.313 391.03,138.263 288.736,138.263Z" style="fill:rgb(227,83,10);"/>
        </g>
        <g transform="matrix(0.847458,0,0,0.737348,-208.72,275.027)">
            <path d="M781.852,396.557L970.897,774.648C984.012,800.878 983.969,833.153 970.785,859.337C957.602,885.521 933.275,901.645 906.953,901.645L528.863,901.645C502.541,901.645 478.215,885.521 465.031,859.337C451.847,833.153 451.805,800.878 464.919,774.648L653.965,396.557C667.119,370.248 691.507,354.028 717.908,354.028C744.31,354.028 768.697,370.248 781.852,396.557ZM717.908,438.791L528.863,816.881L906.953,816.881L717.908,438.791Z" style="fill:rgb(227,83,10);"/>
        </g>
        <g transform="matrix(0.852429,0,0,0.852429,125.524,62.0184)">
            <path d="M961.94,302.39L961.94,629.436C961.94,669.93 929.114,702.756 888.62,702.756L561.574,702.756C521.08,702.756 488.254,669.93 488.254,629.436L488.254,302.39C488.254,261.896 521.08,229.07 561.574,229.07L888.62,229.07C929.114,229.07 961.94,261.896 961.94,302.39ZM888.62,302.39L561.574,302.39L561.574,629.436L888.62,629.436L888.62,302.39Z" style="fill:rgb(227,83,10);"/>
        </g>
    </g>
</svg>
